<svg width="60" height="20" viewBox="0 0 60 20" fill="none" xmlns="http://www.w3.org/2000/svg">
<path d="M22.353 19.5805C22.353 19.8122 22.5408 20 22.7725 20H25.4629C25.6946 20 25.8824 19.8122 25.8824 19.5805V0.419508C25.8824 0.187821 25.6946 0 25.4629 0H22.7725C22.5408 0 22.353 0.18782 22.353 0.419507V19.5805Z" fill="black"/>
<path d="M56.4707 19.5805C56.4707 19.8122 56.6585 20 56.8902 20H59.5806C59.8123 20 60.0001 19.8122 60.0001 19.5805V0.419508C60.0001 0.187821 59.8123 0 59.5806 0H56.8902C56.6585 0 56.4707 0.18782 56.4707 0.419507V19.5805Z" fill="black"/>
<path d="M45.7863 0C45.5929 0 45.4246 0.132211 45.3787 0.3201L41.4 16.6327C41.3337 16.9001 41.0206 16.9001 40.956 16.6327L36.9756 0.320062C36.9298 0.132192 36.7639 0 36.5705 0C35.2694 0 31.1569 0 29.8292 0C29.5976 0 29.4116 0.18782 29.4116 0.419507V19.5805C29.4116 19.8122 29.5994 20 29.8311 20H32.8187C33.0504 20 33.2382 19.8177 33.2382 19.586C33.2382 17.0211 33.2382 3.47115 33.2382 3.47115C33.2382 3.14919 33.6159 3.08234 33.6921 3.39198L37.6659 19.6799C37.7117 19.8678 37.8801 20 38.0735 20H44.2808C44.4742 20 44.6426 19.8678 44.6884 19.6799L48.6605 3.39374C48.7367 3.0841 49.1144 3.15095 49.1144 3.47291V19.5805C49.1144 19.8122 49.3023 20 49.5339 20H52.5215C52.7532 20 52.941 19.8122 52.941 19.5805V0.419508C52.941 0.187821 52.7532 0 52.5215 0H45.7863Z" fill="black"/>
<path d="M9.5491 9.27327L17.6651 0.70805C17.9184 0.440692 17.7289 0 17.3606 0H13.5836C13.4716 0 13.3643 0.044742 13.2856 0.124271L3.9835 9.51434C3.8391 9.66039 3.62564 9.53018 3.62564 9.29615V0.419507C3.62564 0.18782 3.43782 0 3.20614 0H0.419507C0.18782 0 0 0.18782 0 0.419507V19.5805C0 19.8122 0.18782 20 0.419507 20H3.20614C3.43782 20 3.62564 19.8122 3.62564 19.5805V15.7593C3.62564 15.6748 3.65547 15.5939 3.70726 15.5411L6.57795 12.6095C6.64701 12.5392 6.74276 12.5286 6.81966 12.5814L14.4979 18.397C15.6207 19.1749 17.0503 19.6847 18.3594 19.8976C18.6062 19.9378 18.8235 19.7427 18.8235 19.4927C18.8235 18.2378 18.8235 16.8429 18.8235 16.0317C18.8235 15.8258 18.6739 15.6519 18.4726 15.6086C17.7133 15.4451 16.8692 15.1352 16.2291 14.6912L9.58206 9.73781C9.44394 9.64279 9.42667 9.3982 9.5491 9.27327Z" fill="black"/>
</svg>
